<mxfile host="app.diagrams.net" modified="2024-06-06T19:44:05.550Z" agent="Mozilla/5.0 (Macintosh; Intel Mac OS X 10_15_7) AppleWebKit/537.36 (KHTML, like Gecko) Chrome/125.0.0.0 Safari/537.36" etag="axl3AhNoQIhBnCTxFAsk" version="24.5.1" type="device">
  <diagram name="Page-1" id="rw448jPGANLNN--yA3nm">
    <mxGraphModel dx="954" dy="581" grid="1" gridSize="10" guides="1" tooltips="1" connect="1" arrows="1" fold="1" page="1" pageScale="1" pageWidth="850" pageHeight="1100" math="0" shadow="0">
      <root>
        <mxCell id="0" />
        <mxCell id="1" parent="0" />
        <mxCell id="_kohJ7C9W051CDHgxzWl-40" style="edgeStyle=orthogonalEdgeStyle;rounded=0;orthogonalLoop=1;jettySize=auto;html=1;entryX=0.5;entryY=0;entryDx=0;entryDy=0;" parent="1" source="_kohJ7C9W051CDHgxzWl-37" target="_kohJ7C9W051CDHgxzWl-39" edge="1">
          <mxGeometry relative="1" as="geometry" />
        </mxCell>
        <mxCell id="_kohJ7C9W051CDHgxzWl-29" style="edgeStyle=orthogonalEdgeStyle;rounded=0;orthogonalLoop=1;jettySize=auto;html=1;entryX=0.75;entryY=0;entryDx=0;entryDy=0;" parent="1" source="_kohJ7C9W051CDHgxzWl-21" target="_kohJ7C9W051CDHgxzWl-22" edge="1">
          <mxGeometry relative="1" as="geometry">
            <Array as="points">
              <mxPoint x="441" y="384" />
              <mxPoint x="411" y="384" />
              <mxPoint x="411" y="427" />
            </Array>
          </mxGeometry>
        </mxCell>
        <mxCell id="_kohJ7C9W051CDHgxzWl-35" style="edgeStyle=orthogonalEdgeStyle;rounded=0;orthogonalLoop=1;jettySize=auto;html=1;" parent="1" source="_kohJ7C9W051CDHgxzWl-33" target="_kohJ7C9W051CDHgxzWl-25" edge="1">
          <mxGeometry relative="1" as="geometry">
            <Array as="points">
              <mxPoint x="551" y="350" />
              <mxPoint x="551" y="350" />
            </Array>
          </mxGeometry>
        </mxCell>
        <mxCell id="_kohJ7C9W051CDHgxzWl-45" style="edgeStyle=orthogonalEdgeStyle;rounded=0;orthogonalLoop=1;jettySize=auto;html=1;entryX=0.452;entryY=0.026;entryDx=0;entryDy=0;entryPerimeter=0;" parent="1" source="_kohJ7C9W051CDHgxzWl-43" target="_kohJ7C9W051CDHgxzWl-36" edge="1">
          <mxGeometry relative="1" as="geometry">
            <Array as="points">
              <mxPoint x="101" y="400" />
              <mxPoint x="101" y="400" />
            </Array>
          </mxGeometry>
        </mxCell>
        <mxCell id="BPaLhdbYx3CyqS7WtSdo-1" value="" style="group" vertex="1" connectable="0" parent="1">
          <mxGeometry x="656" y="211" width="180" height="115" as="geometry" />
        </mxCell>
        <mxCell id="_kohJ7C9W051CDHgxzWl-37" value="" style="rounded=1;whiteSpace=wrap;html=1;" parent="BPaLhdbYx3CyqS7WtSdo-1" vertex="1">
          <mxGeometry width="180" height="115.00000000000001" as="geometry" />
        </mxCell>
        <mxCell id="_kohJ7C9W051CDHgxzWl-6" value="" style="image;aspect=fixed;html=1;points=[];align=center;fontSize=12;image=img/lib/azure2/app_services/App_Services.svg;" parent="BPaLhdbYx3CyqS7WtSdo-1" vertex="1">
          <mxGeometry x="44.285714285714285" y="13.690476190476192" width="70.0952380952381" height="70.0952380952381" as="geometry" />
        </mxCell>
        <mxCell id="_kohJ7C9W051CDHgxzWl-38" value="wet-Policies" style="text;html=1;align=center;verticalAlign=middle;whiteSpace=wrap;rounded=0;" parent="BPaLhdbYx3CyqS7WtSdo-1" vertex="1">
          <mxGeometry x="47.142857142857146" y="82.14285714285715" width="85.71428571428572" height="32.85714285714286" as="geometry" />
        </mxCell>
        <mxCell id="BPaLhdbYx3CyqS7WtSdo-2" value="" style="group" vertex="1" connectable="0" parent="1">
          <mxGeometry x="661" y="400" width="170" height="135.5" as="geometry" />
        </mxCell>
        <mxCell id="_kohJ7C9W051CDHgxzWl-39" value="" style="rounded=1;whiteSpace=wrap;html=1;" parent="BPaLhdbYx3CyqS7WtSdo-2" vertex="1">
          <mxGeometry width="170" height="135.5" as="geometry" />
        </mxCell>
        <mxCell id="_kohJ7C9W051CDHgxzWl-7" value="" style="image;aspect=fixed;html=1;points=[];align=center;fontSize=12;image=img/lib/azure2/app_services/App_Service_Plans.svg;" parent="BPaLhdbYx3CyqS7WtSdo-2" vertex="1">
          <mxGeometry x="41.82539682539683" y="18.5" width="64" height="64" as="geometry" />
        </mxCell>
        <mxCell id="_kohJ7C9W051CDHgxzWl-41" value="wetPoliciesPlan" style="text;html=1;align=center;verticalAlign=middle;whiteSpace=wrap;rounded=0;" parent="BPaLhdbYx3CyqS7WtSdo-2" vertex="1">
          <mxGeometry x="44.523809523809526" y="82.5" width="80.95238095238096" height="30" as="geometry" />
        </mxCell>
        <mxCell id="BPaLhdbYx3CyqS7WtSdo-3" value="" style="group" vertex="1" connectable="0" parent="1">
          <mxGeometry x="421" y="210" width="190" height="130" as="geometry" />
        </mxCell>
        <mxCell id="_kohJ7C9W051CDHgxzWl-21" value="" style="rounded=0;whiteSpace=wrap;html=1;" parent="BPaLhdbYx3CyqS7WtSdo-3" vertex="1">
          <mxGeometry width="190" height="130" as="geometry" />
        </mxCell>
        <mxCell id="_kohJ7C9W051CDHgxzWl-3" value="" style="image;aspect=fixed;html=1;points=[];align=center;fontSize=12;image=img/lib/azure2/databases/SQL_Server.svg;" parent="BPaLhdbYx3CyqS7WtSdo-3" vertex="1">
          <mxGeometry x="57" y="20" width="68" height="68" as="geometry" />
        </mxCell>
        <mxCell id="_kohJ7C9W051CDHgxzWl-33" value="sqlserver-gs" style="text;html=1;align=center;verticalAlign=middle;whiteSpace=wrap;rounded=0;" parent="BPaLhdbYx3CyqS7WtSdo-3" vertex="1">
          <mxGeometry x="54.28571428571429" y="88" width="81.42857142857143" height="30" as="geometry" />
        </mxCell>
        <mxCell id="BPaLhdbYx3CyqS7WtSdo-4" value="" style="group" vertex="1" connectable="0" parent="1">
          <mxGeometry x="461" y="429" width="180" height="108" as="geometry" />
        </mxCell>
        <mxCell id="_kohJ7C9W051CDHgxzWl-25" value="" style="rounded=1;whiteSpace=wrap;html=1;" parent="BPaLhdbYx3CyqS7WtSdo-4" vertex="1">
          <mxGeometry width="180" height="108" as="geometry" />
        </mxCell>
        <mxCell id="_kohJ7C9W051CDHgxzWl-2" value="" style="image;aspect=fixed;html=1;points=[];align=center;fontSize=12;image=img/lib/azure2/databases/SQL_Database.svg;" parent="BPaLhdbYx3CyqS7WtSdo-4" vertex="1">
          <mxGeometry x="51.42857142857143" y="11" width="48" height="64" as="geometry" />
        </mxCell>
        <mxCell id="_kohJ7C9W051CDHgxzWl-26" value="sqlserver-gs/wetPolicies" style="text;html=1;align=center;verticalAlign=middle;whiteSpace=wrap;rounded=0;" parent="BPaLhdbYx3CyqS7WtSdo-4" vertex="1">
          <mxGeometry x="43.714285714285715" y="75" width="77.14285714285715" height="30" as="geometry" />
        </mxCell>
        <mxCell id="BPaLhdbYx3CyqS7WtSdo-5" value="" style="group" vertex="1" connectable="0" parent="1">
          <mxGeometry x="251" y="427" width="192" height="110" as="geometry" />
        </mxCell>
        <mxCell id="_kohJ7C9W051CDHgxzWl-22" value="" style="rounded=1;whiteSpace=wrap;html=1;" parent="BPaLhdbYx3CyqS7WtSdo-5" vertex="1">
          <mxGeometry width="192" height="110" as="geometry" />
        </mxCell>
        <mxCell id="_kohJ7C9W051CDHgxzWl-1" value="" style="image;aspect=fixed;html=1;points=[];align=center;fontSize=12;image=img/lib/azure2/databases/SQL_Database.svg;" parent="BPaLhdbYx3CyqS7WtSdo-5" vertex="1">
          <mxGeometry x="53.211428571428584" y="13" width="48" height="64" as="geometry" />
        </mxCell>
        <mxCell id="_kohJ7C9W051CDHgxzWl-9" value="sqlserver-gs/master" style="text;html=1;align=center;verticalAlign=middle;whiteSpace=wrap;rounded=0;" parent="BPaLhdbYx3CyqS7WtSdo-5" vertex="1">
          <mxGeometry x="44.982857142857156" y="80" width="82.28571428571429" height="30" as="geometry" />
        </mxCell>
        <mxCell id="BPaLhdbYx3CyqS7WtSdo-6" value="" style="group" vertex="1" connectable="0" parent="1">
          <mxGeometry x="211" y="211" width="168" height="100" as="geometry" />
        </mxCell>
        <mxCell id="_kohJ7C9W051CDHgxzWl-18" value="" style="rounded=1;whiteSpace=wrap;html=1;" parent="BPaLhdbYx3CyqS7WtSdo-6" vertex="1">
          <mxGeometry width="168" height="100" as="geometry" />
        </mxCell>
        <mxCell id="_kohJ7C9W051CDHgxzWl-4" value="" style="image;sketch=0;aspect=fixed;html=1;points=[];align=center;fontSize=12;image=img/lib/mscae/Managed_Identities.svg;direction=east;" parent="BPaLhdbYx3CyqS7WtSdo-6" vertex="1">
          <mxGeometry x="30.00000000000003" y="10" width="60.8" height="80" as="geometry" />
        </mxCell>
        <mxCell id="_kohJ7C9W051CDHgxzWl-12" value="Failure Anomalies - wet policies" style="text;html=1;align=center;verticalAlign=middle;whiteSpace=wrap;rounded=0;" parent="BPaLhdbYx3CyqS7WtSdo-6" vertex="1">
          <mxGeometry x="90.80000000000001" y="30" width="60" height="30" as="geometry" />
        </mxCell>
        <mxCell id="BPaLhdbYx3CyqS7WtSdo-7" value="" style="group" vertex="1" connectable="0" parent="1">
          <mxGeometry x="11" y="200" width="170" height="180" as="geometry" />
        </mxCell>
        <mxCell id="_kohJ7C9W051CDHgxzWl-43" value="" style="rounded=0;whiteSpace=wrap;html=1;" parent="BPaLhdbYx3CyqS7WtSdo-7" vertex="1">
          <mxGeometry width="170" height="180" as="geometry" />
        </mxCell>
        <mxCell id="_kohJ7C9W051CDHgxzWl-42" value="" style="image;aspect=fixed;html=1;points=[];align=center;fontSize=12;image=img/lib/azure2/management_governance/Alerts.svg;" parent="BPaLhdbYx3CyqS7WtSdo-7" vertex="1">
          <mxGeometry x="46.973684210526315" y="13.846153846153847" width="67" height="56.00000000000001" as="geometry" />
        </mxCell>
        <mxCell id="_kohJ7C9W051CDHgxzWl-44" value="Failure Anomalies - wet - policies" style="text;html=1;align=center;verticalAlign=middle;whiteSpace=wrap;rounded=0;" parent="BPaLhdbYx3CyqS7WtSdo-7" vertex="1">
          <mxGeometry x="50.88815789473684" y="100.38461538461539" width="67.10526315789474" height="41.53846153846154" as="geometry" />
        </mxCell>
        <mxCell id="BPaLhdbYx3CyqS7WtSdo-8" value="" style="group" vertex="1" connectable="0" parent="1">
          <mxGeometry x="11" y="423" width="200" height="114" as="geometry" />
        </mxCell>
        <mxCell id="_kohJ7C9W051CDHgxzWl-36" value="" style="rounded=1;whiteSpace=wrap;html=1;arcSize=2;" parent="BPaLhdbYx3CyqS7WtSdo-8" vertex="1">
          <mxGeometry width="200.00000000000003" height="114" as="geometry" />
        </mxCell>
        <mxCell id="_kohJ7C9W051CDHgxzWl-5" value="" style="image;aspect=fixed;html=1;points=[];align=center;fontSize=12;image=img/lib/azure2/devops/Application_Insights.svg;" parent="BPaLhdbYx3CyqS7WtSdo-8" vertex="1">
          <mxGeometry x="71.6867469879518" y="8" width="44" height="63" as="geometry" />
        </mxCell>
        <mxCell id="_kohJ7C9W051CDHgxzWl-15" value="wet-Policies" style="text;html=1;align=center;verticalAlign=middle;whiteSpace=wrap;rounded=0;" parent="BPaLhdbYx3CyqS7WtSdo-8" vertex="1">
          <mxGeometry x="62.048192771084345" y="78" width="72.28915662650603" height="30" as="geometry" />
        </mxCell>
      </root>
    </mxGraphModel>
  </diagram>
</mxfile>
